<?xml version="1.0" encoding="UTF-8"?>
<!DOCTYPE svg PUBLIC "-//W3C//DTD SVG 1.1//EN" "http://www.w3.org/Graphics/SVG/1.1/DTD/svg11.dtd">
<!-- Creator: CorelDRAW 2018 (64-Bit Evaluation Version) -->
<svg xmlns="http://www.w3.org/2000/svg" xml:space="preserve" width="8.5in" height="11in" version="1.1" style="shape-rendering:geometricPrecision; text-rendering:geometricPrecision; image-rendering:optimizeQuality; fill-rule:evenodd; clip-rule:evenodd"
viewBox="0 0 8500 11000"
 xmlns:xlink="http://www.w3.org/1999/xlink"
 aria-hidden="true"
 data-prefix="fas"
 data-icon="address-book"
 role="img">
 <defs>
  <style type="text/css">
   <![CDATA[
    .fil0 {fill:#FFBF00}
   ]]>
  </style>
 </defs>
 <g id="Layer_x0020_1">
  <metadata id="CorelCorpID_0Corel-Layer"/>
  <path class="fil0" d="M8272.32 3678.57c125.22,0 227.68,-102.46 227.68,-227.68l0 -758.93c0,-125.22 -102.46,-227.68 -227.68,-227.68l-379.46 0 0 -910.72c0,-502.79 -407.93,-910.71 -910.71,-910.71l-6071.43 0c-502.79,0 -910.71,407.92 -910.71,910.71l0 7892.86c0,502.79 407.93,910.71 910.71,910.71l6071.43 0c502.79,0 910.71,-407.93 910.71,-910.71l0 -910.71 379.47 -0c125.22,0 227.68,-102.46 227.68,-227.68l0 -758.93c0,-125.22 -102.46,-227.68 -227.68,-227.68l-379.46 0 0 -1214.29 379.46 0c125.22,0 227.68,-102.46 227.68,-227.68l0 -758.93c0,-125.22 -102.46,-227.68 -227.68,-227.68l-379.46 0 0 -1214.29 379.46 0zm-4325.89 -607.14c669.76,0 1214.29,544.53 1214.29,1214.29 0,669.76 -544.53,1214.29 -1214.29,1214.29 -669.76,0 -1214.29,-544.53 -1214.29,-1214.29 0,-669.76 544.53,-1214.29 1214.29,-1214.29zm2125 4492.86c0,201.11 -189.73,364.29 -425,364.29l-3400 -0c-235.27,0 -425,-163.17 -425,-364.28l0 -364.29c0,-603.35 571.09,-1092.86 1275,-1092.86l94.87 0c233.37,96.76 487.61,151.79 755.13,151.79 267.52,0 523.66,-55.02 755.13,-151.79l94.87 0c703.91,0 1275,489.51 1275,1092.86l0 364.29z"/>
 </g>
</svg>
