<?xml version="1.0" encoding="UTF-8"?>
<!DOCTYPE svg PUBLIC "-//W3C//DTD SVG 1.1//EN" "http://www.w3.org/Graphics/SVG/1.1/DTD/svg11.dtd">
<!-- Creator: CorelDRAW 2018 (64-Bit Evaluation Version) -->
<svg xmlns="http://www.w3.org/2000/svg" xml:space="preserve" width="8.5in" height="7.55556in" version="1.1" style="shape-rendering:geometricPrecision; text-rendering:geometricPrecision; image-rendering:optimizeQuality; fill-rule:evenodd; clip-rule:evenodd"
viewBox="0 0 8500 7555.56"
 xmlns:xlink="http://www.w3.org/1999/xlink">
 <defs>
  <style type="text/css">
   <![CDATA[
    .fil0 {fill:#FFBF00}
   ]]>
  </style>
 </defs>
 <g id="Layer_x0020_1">
  <metadata id="CorelCorpID_0Corel-Layer"/>
  <path class="fil0" d="M7793.44 4446.55l697.61 -3069.44c50.37,-221.62 -118.09,-432.66 -345.36,-432.66l-5796.26 0 -135.26 -661.26c-33.7,-164.82 -178.74,-283.19 -346.98,-283.19l-1513.02 0c-195.6,0 -354.17,158.57 -354.17,354.17l0 236.11c0,195.6 158.56,354.17 354.17,354.17l1031.26 0 1036.65 5068.05c-248,142.63 -415.13,410.05 -415.13,716.67 0,456.4 369.98,826.39 826.39,826.39 456.41,0 826.39,-369.98 826.39,-826.39 0,-231.3 -95.14,-440.27 -248.27,-590.28l3093.75 0c-153.12,150 -248.26,358.98 -248.26,590.28 0,456.4 369.98,826.39 826.39,826.39 456.41,0 826.39,-369.98 826.39,-826.39 0,-327.19 -190.19,-609.93 -466.01,-743.82l81.41 -358.24c50.37,-221.62 -118.09,-432.66 -345.36,-432.66l-3961.03 -0 -96.58 -472.22 4325.93 0c165.37,0 308.72,-114.43 345.36,-275.67l-0 0z"/>
 </g>
</svg>
