<?xml version="1.0" encoding="UTF-8"?>
<!DOCTYPE svg PUBLIC "-//W3C//DTD SVG 1.1//EN" "http://www.w3.org/Graphics/SVG/1.1/DTD/svg11.dtd">
<!-- Creator: CorelDRAW 2018 (64-Bit Evaluation Version) -->
<svg xmlns="http://www.w3.org/2000/svg" xml:space="preserve" width="8.26765in" height="8.26771in" version="1.1" style="shape-rendering:geometricPrecision; text-rendering:geometricPrecision; image-rendering:optimizeQuality; fill-rule:evenodd; clip-rule:evenodd"
viewBox="0 0 10697.28 10697.36"
 xmlns:xlink="http://www.w3.org/1999/xlink">
 <defs>
  <style type="text/css">
   <![CDATA[
    .fil0 {fill:#333333}
   ]]>
  </style>
 </defs>
 <g id="Layer_x0020_1">
  <metadata id="CorelCorpID_0Corel-Layer"/>
  <g id="_1815684447120">
   <path class="fil0" d="M9255.76 0l-7814.27 0c-796.1,0 -1441.49,645.37 -1441.49,1441.49l0 7814.32c0,796.12 645.37,1441.49 1441.49,1441.49l3853.96 0.01 6.57 -3822.64 -993.12 0c-129.06,0 -233.81,-104.36 -234.31,-233.42l-4.76 -1232.19c-0.5,-129.76 104.57,-235.22 234.34,-235.22l991.31 0 0 -1190.61c0,-1381.7 843.85,-2134.04 2076.41,-2134.04l1011.41 0c129.4,0 234.34,104.91 234.34,234.34l0 1038.99c0,129.38 -104.86,234.26 -234.21,234.34l-620.69 0.29c-670.31,0 -800.1,318.52 -800.1,785.97l0 1030.75 1472.89 -0.01c140.34,0 249.23,122.55 232.69,261.92l-146.04 1232.19c-13.97,117.92 -113.96,206.76 -232.69,206.76l-1320.28 -0.01 -6.57 3822.64 2293.17 0c796.1,0 1441.46,-645.37 1441.46,-1441.46l0 -7814.4c-0.03,-796.12 -645.39,-1441.49 -1441.52,-1441.49z"/>
   <g>
   </g>
   <g>
   </g>
   <g>
   </g>
   <g>
   </g>
   <g>
   </g>
   <g>
   </g>
   <g>
   </g>
   <g>
   </g>
   <g>
   </g>
   <g>
   </g>
   <g>
   </g>
   <g>
   </g>
   <g>
   </g>
   <g>
   </g>
   <g>
   </g>
  </g>
 </g>
</svg>
