<?xml version="1.0" encoding="UTF-8"?>
<!DOCTYPE svg PUBLIC "-//W3C//DTD SVG 1.1//EN" "http://www.w3.org/Graphics/SVG/1.1/DTD/svg11.dtd">
<!-- Creator: CorelDRAW 2018 (64-Bit Evaluation Version) -->
<svg xmlns="http://www.w3.org/2000/svg" xml:space="preserve" width="8.49914in" height="6.60595in" version="1.1" style="shape-rendering:geometricPrecision; text-rendering:geometricPrecision; image-rendering:optimizeQuality; fill-rule:evenodd; clip-rule:evenodd"
viewBox="0 0 8500.02 6606.63"
 xmlns:xlink="http://www.w3.org/1999/xlink">
 <defs>
  <style type="text/css">
   <![CDATA[
    .fil0 {fill:#FFBF00}
   ]]>
  </style>
 </defs>
 <g id="Layer_x0020_1">
  <metadata id="CorelCorpID_0Corel-Layer"/>
  <path class="fil0" d="M7201.27 4137.54l0 2114.89c0,196.29 -157.91,354.2 -354.2,354.2l-1711.98 0c-97.41,0 -177.1,-79.7 -177.1,-177.1l0 -1652.95c0,-97.41 -79.7,-177.1 -177.1,-177.1l-1062.61 0c-97.41,0 -177.1,79.7 -177.1,177.1l0 1652.95c0,97.41 -79.7,177.1 -177.1,177.1l-1711.98 0c-196.29,0 -354.2,-157.91 -354.2,-354.2l-0 -2114.89c0,-53.13 23.61,-103.31 64.94,-137.25l2774.59 -2284.61c64.94,-53.13 159.39,-53.13 225.8,0l2774.59 2284.61c39.85,33.94 63.46,84.12 63.46,137.25zm1233.81 -898.79l-1233.81 -1016.86 0 -2044.05c0,-97.41 -79.7,-177.1 -177.1,-177.1l-826.48 0c-97.41,0 -177.1,79.7 -177.1,177.1l0 1071.47 -1320.89 -1087.7c-261.22,-215.48 -639.04,-215.48 -900.27,0l-3735.37 3077.14c-75.27,61.99 -85.6,174.15 -23.61,249.42l376.34 457.51c61.99,75.27 174.15,85.6 249.42,23.61l3471.19 -2858.72c64.94,-53.13 159.39,-53.13 225.8,0l3471.19 2858.72c75.27,61.99 187.43,51.65 249.42,-23.61l376.34 -457.51c61.99,-76.74 50.18,-187.43 -25.09,-249.42l-0 0z"/>
 </g>
</svg>
