<?xml version="1.0" encoding="UTF-8"?>
<!DOCTYPE svg PUBLIC "-//W3C//DTD SVG 1.1//EN" "http://www.w3.org/Graphics/SVG/1.1/DTD/svg11.dtd">
<!-- Creator: CorelDRAW 2018 (64-Bit Evaluation Version) -->
<svg xmlns="http://www.w3.org/2000/svg" xml:space="preserve" width="8.26772in" height="8.26772in" version="1.1" style="shape-rendering:geometricPrecision; text-rendering:geometricPrecision; image-rendering:optimizeQuality; fill-rule:evenodd; clip-rule:evenodd"
viewBox="0 0 2561.88 2561.88"
 xmlns:xlink="http://www.w3.org/1999/xlink">
 <defs>
  <style type="text/css">
   <![CDATA[
    .fil0 {fill:#333333}
   ]]>
  </style>
 </defs>
 <g id="Layer_x0020_1">
  <metadata id="CorelCorpID_0Corel-Layer"/>
  <g id="_1815686506512">
   <path class="fil0" d="M1280.91 1026.2c-140.43,0 -254.77,114.28 -254.77,254.71 0,140.48 114.34,254.82 254.77,254.82 140.48,0 254.77,-114.34 254.77,-254.82 0,-140.43 -114.28,-254.71 -254.77,-254.71zm0 0c-140.43,0 -254.77,114.28 -254.77,254.71 0,140.48 114.34,254.82 254.77,254.82 140.48,0 254.77,-114.34 254.77,-254.82 0,-140.43 -114.28,-254.71 -254.77,-254.71zm424.42 -415.37l-848.79 0c-135.48,0 -245.72,110.24 -245.72,245.72l0 848.79c0,135.48 110.24,245.72 245.72,245.72l848.79 0c135.48,0 245.72,-110.24 245.72,-245.72l0 -848.79c0,-135.48 -110.24,-245.72 -245.72,-245.72zm-424.42 1111.31c-243.24,0 -441.17,-197.93 -441.17,-441.23 0,-243.24 197.93,-441.17 441.17,-441.17 243.3,0 441.23,197.93 441.23,441.17 0,243.3 -197.93,441.23 -441.23,441.23zm455.4 -791.17c-57.56,0 -104.39,-46.83 -104.39,-104.39 0,-57.56 46.83,-104.39 104.39,-104.39 57.56,0 104.39,46.83 104.39,104.39 0,57.56 -46.83,104.39 -104.39,104.39zm-455.4 95.23c-140.43,0 -254.77,114.28 -254.77,254.71 0,140.48 114.34,254.82 254.77,254.82 140.48,0 254.77,-114.34 254.77,-254.82 0,-140.43 -114.28,-254.71 -254.77,-254.71zm424.42 -415.37l-848.79 0c-135.48,0 -245.72,110.24 -245.72,245.72l0 848.79c0,135.48 110.24,245.72 245.72,245.72l848.79 0c135.48,0 245.72,-110.24 245.72,-245.72l0 -848.79c0,-135.48 -110.24,-245.72 -245.72,-245.72zm-424.42 1111.31c-243.24,0 -441.17,-197.93 -441.17,-441.23 0,-243.24 197.93,-441.17 441.17,-441.17 243.3,0 441.23,197.93 441.23,441.17 0,243.3 -197.93,441.23 -441.23,441.23zm455.4 -791.17c-57.56,0 -104.39,-46.83 -104.39,-104.39 0,-57.56 46.83,-104.39 104.39,-104.39 57.56,0 104.39,46.83 104.39,104.39 0,57.56 -46.83,104.39 -104.39,104.39zm-455.4 95.23c-140.43,0 -254.77,114.28 -254.77,254.71 0,140.48 114.34,254.82 254.77,254.82 140.48,0 254.77,-114.34 254.77,-254.82 0,-140.43 -114.28,-254.71 -254.77,-254.71zm-1280.91 -1026.2l0 2561.88 2561.88 0 0 -2561.88 -2561.88 0zm2137.46 1705.34c0,238.3 -193.83,432.12 -432.12,432.12l-848.79 0c-238.3,0 -432.12,-193.83 -432.12,-432.12l-0 -848.79c0,-238.3 193.83,-432.12 432.12,-432.12l848.79 -0c238.3,0 432.12,193.83 432.12,432.12l0 848.79zm-432.13 -1094.51l-848.79 0c-135.48,0 -245.72,110.24 -245.72,245.72l0 848.79c0,135.48 110.24,245.72 245.72,245.72l848.79 0c135.48,0 245.72,-110.24 245.72,-245.72l0 -848.79c0,-135.48 -110.24,-245.72 -245.72,-245.72zm-424.42 1111.31c-243.24,0 -441.17,-197.93 -441.17,-441.23 0,-243.24 197.93,-441.17 441.17,-441.17 243.3,0 441.23,197.93 441.23,441.17 0,243.3 -197.93,441.23 -441.23,441.23zm455.4 -791.17c-57.56,0 -104.39,-46.83 -104.39,-104.39 0,-57.56 46.83,-104.39 104.39,-104.39 57.56,0 104.39,46.83 104.39,104.39 0,57.56 -46.83,104.39 -104.39,104.39zm-455.4 95.23c-140.43,0 -254.77,114.28 -254.77,254.71 0,140.48 114.34,254.82 254.77,254.82 140.48,0 254.77,-114.34 254.77,-254.82 0,-140.43 -114.28,-254.71 -254.77,-254.71zm0 0c-140.43,0 -254.77,114.28 -254.77,254.71 0,140.48 114.34,254.82 254.77,254.82 140.48,0 254.77,-114.34 254.77,-254.82 0,-140.43 -114.28,-254.71 -254.77,-254.71zm0 0c-140.43,0 -254.77,114.28 -254.77,254.71 0,140.48 114.34,254.82 254.77,254.82 140.48,0 254.77,-114.34 254.77,-254.82 0,-140.43 -114.28,-254.71 -254.77,-254.71zm424.42 -415.37l-848.79 0c-135.48,0 -245.72,110.24 -245.72,245.72l0 848.79c0,135.48 110.24,245.72 245.72,245.72l848.79 0c135.48,0 245.72,-110.24 245.72,-245.72l0 -848.79c0,-135.48 -110.24,-245.72 -245.72,-245.72zm-424.42 1111.31c-243.24,0 -441.17,-197.93 -441.17,-441.23 0,-243.24 197.93,-441.17 441.17,-441.17 243.3,0 441.23,197.93 441.23,441.17 0,243.3 -197.93,441.23 -441.23,441.23zm455.4 -791.17c-57.56,0 -104.39,-46.83 -104.39,-104.39 0,-57.56 46.83,-104.39 104.39,-104.39 57.56,0 104.39,46.83 104.39,104.39 0,57.56 -46.83,104.39 -104.39,104.39zm-455.4 95.23c-140.43,0 -254.77,114.28 -254.77,254.71 0,140.48 114.34,254.82 254.77,254.82 140.48,0 254.77,-114.34 254.77,-254.82 0,-140.43 -114.28,-254.71 -254.77,-254.71zm0 0c-140.43,0 -254.77,114.28 -254.77,254.71 0,140.48 114.34,254.82 254.77,254.82 140.48,0 254.77,-114.34 254.77,-254.82 0,-140.43 -114.28,-254.71 -254.77,-254.71zm0 0c-140.43,0 -254.77,114.28 -254.77,254.71 0,140.48 114.34,254.82 254.77,254.82 140.48,0 254.77,-114.34 254.77,-254.82 0,-140.43 -114.28,-254.71 -254.77,-254.71zm424.42 -415.37l-848.79 0c-135.48,0 -245.72,110.24 -245.72,245.72l0 848.79c0,135.48 110.24,245.72 245.72,245.72l848.79 0c135.48,0 245.72,-110.24 245.72,-245.72l0 -848.79c0,-135.48 -110.24,-245.72 -245.72,-245.72zm-424.42 1111.31c-243.24,0 -441.17,-197.93 -441.17,-441.23 0,-243.24 197.93,-441.17 441.17,-441.17 243.3,0 441.23,197.93 441.23,441.17 0,243.3 -197.93,441.23 -441.23,441.23zm455.4 -791.17c-57.56,0 -104.39,-46.83 -104.39,-104.39 0,-57.56 46.83,-104.39 104.39,-104.39 57.56,0 104.39,46.83 104.39,104.39 0,57.56 -46.83,104.39 -104.39,104.39zm-455.4 95.23c-140.43,0 -254.77,114.28 -254.77,254.71 0,140.48 114.34,254.82 254.77,254.82 140.48,0 254.77,-114.34 254.77,-254.82 0,-140.43 -114.28,-254.71 -254.77,-254.71z"/>
   <g>
   </g>
   <g>
   </g>
   <g>
   </g>
   <g>
   </g>
   <g>
   </g>
   <g>
   </g>
   <g>
   </g>
   <g>
   </g>
   <g>
   </g>
   <g>
   </g>
   <g>
   </g>
   <g>
   </g>
   <g>
   </g>
   <g>
   </g>
   <g>
   </g>
  </g>
 </g>
</svg>
