<?xml version="1.0" encoding="UTF-8"?>
<!DOCTYPE svg PUBLIC "-//W3C//DTD SVG 1.1//EN" "http://www.w3.org/Graphics/SVG/1.1/DTD/svg11.dtd">
<!-- Creator: CorelDRAW 2018 (64-Bit Evaluation Version) -->
<svg xmlns="http://www.w3.org/2000/svg" xml:space="preserve" width="9.87298in" height="6.69242in" version="1.1" style="shape-rendering:geometricPrecision; text-rendering:geometricPrecision; image-rendering:optimizeQuality; fill-rule:evenodd; clip-rule:evenodd"
viewBox="0 0 9890.37 6704.2"
 xmlns:xlink="http://www.w3.org/1999/xlink">
 <defs>
  <style type="text/css">
   <![CDATA[
    .str0 {stroke:white;stroke-width:55.65;stroke-miterlimit:2.61313}
    .fil9 {fill:none}
    .fil5 {fill:#1A1A1A}
    .fil15 {fill:#B3B3B3}
    .fil16 {fill:#CCCCCC}
    .fil14 {fill:#E6E6E6}
    .fil4 {fill:red}
    .fil3 {fill:#FF6600}
    .fil12 {fill:#FFAA00}
    .fil2 {fill:#FFBF00}
    .fil8 {fill:white}
    .fil13 {fill:#FF6767}
    .fil6 {fill:#D65500}
    .fil7 {fill:#D65500}
    .fil10 {fill:#E6A800}
    .fil11 {fill:#FFCF4D}
    .fil1 {fill:black;fill-rule:nonzero}
    .fil0 {fill:#1A1A1A;fill-rule:nonzero}
   ]]>
  </style>
 </defs>
 <g id="Layer_x0020_1">
  <metadata id="CorelCorpID_0Corel-Layer"/>
  <g id="_1815627312832">
   <path class="fil0" d="M1262.55 135.49c320.55,-22.56 502.93,86.25 628.64,203.16 16.75,-15.92 31.86,-30.32 39.32,-37.74 20.39,-20.29 41.69,-40.33 63.84,-59.27 25.88,-22.11 53.04,-43.12 81.65,-62.16 91.95,-61.2 209.87,-105.33 329.86,-116.89 120.49,-11.58 245.43,8.54 357.09,73.38 103.64,60.21 174.83,147.77 220.02,246.71 43.9,96.07 61.15,202.23 59.02,298.33 -1.82,80.16 -16.04,162.03 -40.62,237.38 28.85,30.14 55.87,62.27 79.75,95.2 84.18,116.01 145.25,260.11 141.43,395.12 -1.12,39.24 -7.27,75.93 -17.86,110.21 -23.32,75.49 -63.4,135.99 -114.47,183.56 105.17,83.16 199.27,179.66 279.74,286.93 55.42,73.87 104.42,152.75 146.16,235.77 140.47,-174.6 309.11,-325.84 499.1,-446.88 -16.73,-31.82 -32.87,-64.72 -48.12,-98.96l-0.47 0.21c-25.29,-56.86 -48.81,-120.46 -64.56,-183.46 -15.88,-63.49 -25.81,-129.18 -25.81,-193.04 0,-72.33 12.74,-132.21 36.95,-192.07l0 -1.25c18.86,-46.59 42.12,-83.64 71.27,-125.99 10.06,-14.62 28.7,-40.92 53.04,-68.81 48.66,-55.59 113.89,-107.78 198.53,-130.01 2.17,-12.18 4.77,-24.53 7.87,-37.06 23.78,-95.75 76.05,-190.52 139.65,-270.74 63.56,-80.2 145.25,-153.64 222.28,-200.92 53.5,-32.85 140.28,-71.44 232.09,-80.73 70.23,-7.11 141.29,0.43 208.31,30.18 50.83,-59.29 113.71,-115.81 185.31,-155.98 116.66,-65.42 251.97,-92.71 399.8,-46.97 137.97,42.68 266.11,148.73 357.12,273.59 90.4,124.08 152.97,279.87 157.51,418.66 7.92,241.24 -130.23,421.58 -248.72,576.19 -21.77,28.42 -42.57,55.56 -57.61,77.54 -41.76,61 -72.6,121.61 -95.29,184.53 377.79,120.36 708.17,346.68 956.06,643.99 23,27.56 45.28,55.76 66.82,84.5 23.44,-39.49 48.75,-77.77 75.81,-114.71 119.9,-163.69 274.04,-300.58 451.74,-400.09 -40.6,-47.84 -79.6,-100.21 -109.64,-156.77 -45.69,-85.97 -73.96,-182.19 -69.42,-290.28 3.77,-90.66 31.74,-209.72 92.01,-306.08 63.13,-100.9 157.93,-183.53 293.05,-216.31 113.03,-27.43 217,-10.83 306.87,28.68 43.84,19.27 84.12,44.71 119.62,72.66 44.15,-11.23 88.77,-13.91 132.3,-10.46 68.95,5.46 137.39,29.75 180.59,50.55l-0.24 0.5c62.7,30.29 129.46,77.55 181.86,129.37 42.48,42.02 80.11,90.95 107.21,143.55 82.37,33.24 126.7,104.95 180.44,191.93 3.68,5.96 0.96,1.92 5.07,8.37l31.59 60.63c60.45,163.03 66.79,271.99 38.25,363.57 93.83,64.61 179.45,140.22 254.94,225.01 206.04,231.42 337.24,530.67 355.59,859.7l1.97 10.85c81.53,30.36 32.96,12.35 106.51,44.38 57.7,39.46 137.07,98.56 185.97,129.42l3.85 2.43c118.38,74.79 184.13,120.43 194.91,284.26l0 1.27c8.05,131.27 -5.1,220.32 -40.11,277.01 -14.45,70.02 -62.13,135.1 -142.05,196.38 -145.86,111.87 -227.9,80.29 -362.22,29.82l-31.56 -11.86c-21.07,-7.66 -46.74,-16.44 -73.64,-24.8l-100.99 -38.19 -37.61 45.88c-36.2,46.56 -75.24,90.8 -116.89,132.44 -255.84,255.84 -609.27,414.09 -999.58,414.09 -56.74,0 -112.68,-3.36 -167.66,-9.87 -6.28,9.08 -13.19,17.3 -20.74,24.65 11.88,99.47 -37.27,189.04 -145.43,272.13 -147.6,113.16 -239.74,78.01 -390.05,21.51l-50.25 -18.79c-48.99,-17.8 -112.26,-39.09 -174.04,-56.64 -22.09,-6.26 -132.12,-31.61 -137.3,-26.5 -36.89,36.43 -33.42,28.92 -72.32,67.88l-69.58 72.15c-55.72,72.91 -116.2,142.01 -180.97,206.78 -372.42,372.41 -886.92,602.78 -1455.13,602.78 -568.21,0 -1082.71,-230.37 -1455.13,-602.78 -64.78,-64.78 -240.49,-286.49 -296.21,-359.41 -119.06,26.91 12.88,0.12 -119.06,26.91 -13.72,3.5 -28.87,7.63 -44.91,12.18 -61.78,17.54 -125.05,38.83 -174.04,56.64l-50.24 18.79c-150.4,56.51 -242.74,91.43 -390.05,-21.51 -105.84,-81.3 -155.15,-168.43 -146.39,-264.9 -101.39,20.86 -206.39,31.82 -313.95,31.82 -428.11,0 -815.74,-173.58 -1096.33,-454.17 -46.83,-46.84 -90.68,-96.67 -131.25,-149.18l-54.34 -63.8c-57.67,23.15 -9.26,3.85 -96.63,31.16 -39.06,11.51 -100.34,31.62 -130.73,42.67l-35.9 13.46c-137.83,51.85 -223.12,83.5 -368.75,-27.99l-0.15 0.19c-88.25,-67.48 -137.19,-138.83 -146.13,-216.15 -37.9,-56.54 -52.03,-147.4 -43.05,-283.36 10.62,-163.37 78.47,-211.17 200.49,-288.22l4.24 -2.67c57.5,-36.28 161.4,-101.85 215.22,-148.92 22.63,-16.97 74.4,-43.17 80.41,-46.22l54.04 -28.16c16.41,-362.18 158.05,-692.69 382.82,-949.35 59.31,-67.71 124.45,-130.21 194.62,-186.73l-25.47 -75.31c-6.08,-17.59 -20.45,-57.32 -50.08,-137.97 -13.2,-35.93 -24.86,-66.84 -33.31,-80.91 -1.32,-2.18 -2.86,-4.03 -4.86,-5.4 -60.25,-40.89 -119.6,-90.83 -172.49,-144.9 -53.28,-54.45 -102.95,-114.8 -143.79,-176.37l-36.65 -77.06c-35.24,-106.05 -48.29,-188.26 -41.24,-272.89 7.59,-91.26 34.49,-162.38 78.91,-246.67 52.94,-100.4 117.71,-181.24 205.1,-244.13 93.32,-67.13 199.05,-105.2 326.63,-114.18l1.25 0zm258.47 747.96c-41.18,-46.15 -98.96,-110.85 -213.17,-103.73l-2.48 5.36c8.63,10.13 17.63,19.96 26.86,29.39 26.33,26.91 51.82,49.02 73.93,64.03 89.64,60.85 150.03,129.63 196.91,207.57 35.71,59.4 57.84,112.99 79.22,170.17 31.42,-8.65 56.74,-15.11 75.18,-19.16l0.2 0.93 1.03 -0.23 1.25 -1.25c8.93,-1.96 27.8,-5.71 61.42,-12.09 26.27,-4.98 47.75,-8.83 62.74,-11.11l21.41 -3.5 24.42 -4.59 -0.05 -0.23c22.94,-4.39 4.54,-1.04 46.38,-9.26l1.25 0 25.23 -4.92 -22.14 -9.89c-6.56,-0.35 -10.2,-1.56 -9.08,-4.05 14.64,-32.82 28.51,-63.95 43.31,-92.65 -146.99,66.27 -272.72,7.71 -411.02,-114.21l0 -1.27c-31.34,-27.64 -55.79,-55.04 -82.81,-85.31zm512.97 293.73c-20.54,2.32 -41.67,4.4 -53.38,3.76l22.14 9.89 15.42 -3.01 -0.04 -0.23 12.36 -2.45 3.5 -7.96zm-131.62 33.69l-0.03 -0.15c-5.32,1.09 -11.99,2.34 0.03,0.15zm-591.18 -438.14l-0.99 1.65c2.41,-2.37 4.4,-4.1 0.99,-1.65zm3747.49 650.73c-15.07,-0.46 -29.89,-1.7 -44.42,-3.68 -0.45,8.41 -1.13,17.03 -2.08,25.86 -2.8,25.95 -7.3,51.39 -13.86,76.02 26.09,17.45 50.14,35.91 72.6,56.07 10.12,-52.89 22.26,-104.19 36.87,-154.34 -15.65,0.55 -32,0.6 -49.11,0.07zm441.48 -694.71l-2.29 15.46c2.45,-4.39 3.76,-7.5 3.72,-9.08 -0.06,-1.7 -0.55,-3.85 -1.42,-6.39zm704.95 1880.33c-128.06,-153.59 -288.06,-279.54 -469.76,-367.62 -0.31,44.74 -0.31,87.21 -0.31,125.52 0,101.83 0,179.98 -16.17,261.31 -28.59,144.13 -92.68,247.01 -225.49,323.47 -88.83,51.13 -206.86,76.74 -317.39,77.02 -109.37,0.3 -226.91,-24.77 -315.69,-74.91 -228.99,-129.34 -237.05,-281.14 -249.13,-509.38l-1.18 -21.79c-3.33,-59.38 -8.45,-130.64 -16.73,-202.92l-1.97 -16.79c-251.08,101.45 -466.68,273.65 -622.29,492.14 -163.74,229.87 -260.06,512.14 -260.06,817.97 0,389.68 157.93,742.46 413.23,997.76 255.3,255.3 608.08,413.23 997.76,413.23 389.69,0 742.46,-157.93 997.77,-413.23 255.3,-255.3 413.23,-608.08 413.23,-997.76 0,-344.89 -122.4,-660.04 -325.84,-904.01zm-3436.17 948.12c163.48,-163.48 264.62,-389.41 264.62,-638.97 0,-204.63 -66.66,-392.28 -179.13,-542.22 -13.8,-18.4 -28.29,-36.25 -43.41,-53.52 -23.73,130.21 -82.93,240.81 -211.83,304.89 -52.28,25.96 -108.45,40.98 -165.39,47.05 -50.52,5.35 -101.71,3.76 -150.17,-3.16 -43.83,-6.23 -89.48,-17.79 -132.29,-32.73 -46.83,-16.38 -91.99,-38.04 -130.13,-62.76 -65.62,-42.56 -116.3,-107.43 -154.74,-186.14 -21.5,-44.01 -43.52,-101.15 -64.68,-163.46 -13.57,-39.99 -28.29,-86.37 -42.68,-133.42 -119.24,53.68 -224.85,132.52 -310.03,229.78 -138.65,158.33 -222.71,366.7 -222.71,595.69 0,249.56 101.15,475.49 264.62,638.97 163.48,163.48 389.41,264.62 638.97,264.62 249.55,0 475.49,-101.15 638.96,-264.62zm5756.69 -13.74c138.72,-138.72 224.54,-330.44 224.54,-542.21 0,-196.03 -73.18,-374.62 -193.55,-509.83 -68.75,-77.21 -152.78,-140.45 -247.26,-184.88 -12.17,157.53 -37.3,267.05 -247.01,359.84 -67.15,29.73 -155.88,44.58 -238.38,44.39 -83.16,-0.15 -172.5,-15.51 -240.34,-46.12 -100.78,-45.46 -160.04,-92.79 -194.93,-148.55 -8.66,10.57 -17.04,21.39 -25.13,32.44 -92.36,126.1 -146.9,282.56 -146.9,452.7 0,211.77 85.82,403.48 224.54,542.21 138.72,138.72 330.44,224.54 542.21,224.54 211.78,0 403.5,-85.82 542.22,-224.54z"/>
   <path class="fil1" d="M832.48 5974.59l-114.61 108.85c-77.95,-82.13 -165.47,-123.2 -262.95,-123.2 -82.13,0 -151.51,28.11 -207.72,84.13 -56.42,56 -84.53,124.99 -84.53,207.11 0,57.22 12.56,108.05 37.48,152.31 24.92,44.45 60.2,79.34 105.66,104.66 45.65,25.3 96.27,37.86 152.09,37.86 47.45,0 90.91,-8.77 130.18,-26.51 39.47,-17.74 82.73,-50.04 129.78,-96.69l111.04 116.03c-63.4,62 -123.4,105.06 -179.82,128.98 -56.42,24.12 -121.01,36.08 -193.37,36.08 -133.57,0 -243.01,-42.26 -328.12,-126.99 -85.13,-84.51 -127.59,-193.17 -127.59,-325.33 0,-85.72 19.34,-161.67 58.21,-228.26 38.68,-66.58 94.1,-120.01 166.46,-160.46 72.17,-40.47 149.91,-60.82 233.44,-60.82 70.77,0 138.95,14.95 204.74,44.86 65.58,29.9 122.2,72.36 169.63,127.38zm142.14 -150.71l166.26 0 0 324.15 287.06 0 0 -324.15 165.06 0 0 858.8 -165.06 0 0 -376.76 -287.06 0 0 376.76 -166.26 0 0 -858.8zm802.77 0l162.67 0 0 858.8 -162.67 0 0 -858.8zm1136.08 150.71l-114.61 108.85c-77.95,-82.13 -165.47,-123.2 -262.95,-123.2 -82.12,0 -151.51,28.11 -207.71,84.13 -56.42,56 -84.53,124.99 -84.53,207.11 0,57.22 12.56,108.05 37.48,152.31 24.92,44.45 60.2,79.34 105.66,104.66 45.65,25.3 96.28,37.86 152.09,37.86 47.45,0 90.91,-8.77 130.18,-26.51 39.47,-17.74 82.73,-50.04 129.78,-96.69l111.04 116.03c-63.4,62 -123.4,105.06 -179.82,128.98 -56.42,24.12 -121.01,36.08 -193.37,36.08 -133.57,0 -243.01,-42.26 -328.12,-126.99 -85.13,-84.51 -127.59,-193.17 -127.59,-325.33 0,-85.72 19.34,-161.67 58.21,-228.26 38.68,-66.58 94.1,-120.01 166.46,-160.46 72.17,-40.47 149.91,-60.82 233.43,-60.82 70.77,0 138.95,14.95 204.74,44.86 65.58,29.9 122.2,72.36 169.63,127.38zm144.55 -150.71l165.05 0 0 297.04 232.43 -297.04 197.16 0 -300.01 383.36 329.13 475.44 -193.97 0 -264.74 -382.55 0 382.55 -165.05 0 0 -858.8zm741.78 0l468.86 0 0 160.28 -306.19 0 0 154.3 306.19 0 0 157.89 -306.19 0 0 226.05 306.19 0 0 160.28 -468.86 0 0 -858.8zm621.97 0l155.08 0 369.99 565.16 0 -565.16 162.67 0 0 858.8 -156.29 0 -368.79 -563.36 0 563.36 -162.66 0 0 -858.8zm891.87 0l169.25 0c68.18,0 120.61,7.98 157.09,24.12 36.68,16.15 65.59,41.07 86.72,74.56 21.33,33.29 31.9,70.57 31.9,111.24 0,38.28 -9.37,72.96 -27.91,104.25 -18.54,31.3 -45.85,56.62 -81.74,76.15 44.66,15.15 78.95,32.9 102.87,53.43 24.12,20.33 42.66,45.05 56.02,74.16 13.35,28.9 20.13,60.4 20.13,94.28 0,68.98 -25.12,127.39 -75.55,175.03 -50.44,47.65 -118.02,71.57 -202.94,71.57l-235.84 0 0 -858.8zm83.73 83.73l0 275.11 49.24 0c59.81,0 103.86,-5.6 131.96,-16.55 28.11,-11.16 50.44,-28.71 66.78,-52.63 16.55,-23.92 24.72,-50.62 24.72,-79.73 0,-39.27 -13.75,-70.17 -41.26,-92.7 -27.71,-22.33 -71.57,-33.49 -131.77,-33.49l-99.68 0zm0 361.23l0 330.11 106.65 0c62.8,0 108.85,-6.18 138.16,-18.34 29.3,-12.36 52.81,-31.69 70.57,-57.81 17.74,-26.12 26.71,-54.42 26.71,-84.72 0,-38.28 -12.56,-71.77 -37.48,-100.28 -24.92,-28.31 -59.21,-47.84 -102.86,-58.41 -29.31,-6.98 -80.34,-10.56 -153.11,-10.56l-48.64 0zm604.23 -444.96l86.12 0 0 518.72c0,61.4 1.2,99.86 3.59,115.01 4.18,33.89 14.15,62.2 29.7,84.93 15.55,22.72 39.47,41.86 71.77,57.21 32.29,15.35 64.79,23.12 97.68,23.12 28.31,0 55.62,-5.98 81.73,-18.14 25.92,-11.96 47.85,-28.7 65.39,-50.23 17.54,-21.33 30.3,-47.25 38.48,-77.55 5.78,-21.93 8.77,-66.57 8.77,-134.35l0 -518.72 86.12 0 0 518.31c0,76.75 -7.58,138.75 -22.53,185.98 -14.95,47.25 -45.05,88.51 -89.91,123.4 -45.04,35.09 -99.46,52.63 -163.45,52.63 -69.38,0 -128.79,-16.55 -178.22,-49.64 -49.64,-33.09 -82.74,-76.75 -99.48,-131.36 -10.57,-33.49 -15.75,-93.7 -15.75,-181.01l0 -518.31zm779.64 858.8l0 -858.8 178.22 0c128.38,0 221.68,10.37 279.68,30.9 83.33,29.31 148.52,79.74 195.37,151.91 46.83,71.96 70.37,157.69 70.37,257.35 0,86.12 -18.54,161.68 -55.82,227.06 -37.08,65.39 -85.52,113.83 -144.73,144.93 -59.41,31.1 -142.74,46.65 -249.79,46.65l-273.31 0zm82.53 -81.34l99.08 0c118.42,0 200.35,-7.37 246.2,-22.12 64.39,-21.13 115.23,-58.81 152.11,-113.43 36.88,-54.83 55.22,-121.61 55.22,-200.55 0,-82.73 -19.94,-153.7 -60.01,-212.31 -39.87,-58.81 -95.69,-99.08 -167.06,-120.81 -53.62,-16.35 -141.92,-24.52 -264.92,-24.52l-60.61 0 0 693.73zm807.57 81.34l0 -858.8 178.22 0c128.38,0 221.68,10.37 279.68,30.9 83.33,29.31 148.52,79.74 195.37,151.91 46.83,71.96 70.37,157.69 70.37,257.35 0,86.12 -18.54,161.68 -55.82,227.06 -37.08,65.39 -85.52,113.83 -144.73,144.93 -59.41,31.1 -142.74,46.65 -249.79,46.65l-273.31 0zm82.53 -81.34l99.08 0c118.42,0 200.35,-7.37 246.2,-22.12 64.39,-21.13 115.23,-58.81 152.11,-113.43 36.88,-54.83 55.22,-121.61 55.22,-200.55 0,-82.73 -19.94,-153.7 -60.01,-212.31 -39.87,-58.81 -95.69,-99.08 -167.06,-120.81 -53.62,-16.35 -141.92,-24.52 -264.92,-24.52l-60.61 0 0 693.73zm795.61 -777.46l86.12 0 0 858.8 -86.12 0 0 -858.8zm283.47 0l491.59 0 0 83.73 -405.47 0 0 269.13 401.88 0 0 83.72 -401.88 0 0 338.49 401.88 0 0 83.73 -488 0 0 -858.8zm551.59 698.12l72.96 -43.84c51.43,94.89 110.84,142.33 178.21,142.33 28.91,0 56.02,-6.78 81.34,-20.13 25.32,-13.36 44.65,-31.5 57.81,-54.04 13.36,-22.52 19.94,-46.45 19.94,-71.75 0,-28.71 -9.77,-56.82 -29.31,-84.53 -26.91,-38.07 -75.95,-84.12 -147.52,-137.75 -71.77,-54.22 -116.42,-93.3 -133.96,-117.42 -30.5,-40.47 -45.66,-84.32 -45.66,-131.37 0,-37.28 8.98,-71.37 26.93,-102.07 17.94,-30.7 43.26,-54.82 75.94,-72.56 32.69,-17.75 67.98,-26.52 106.25,-26.52 40.67,0 78.75,9.97 114.03,30.12 35.29,19.92 72.77,56.8 112.24,110.44l-70.17 53.21c-32.5,-42.86 -60.21,-71.17 -83.13,-84.72 -22.93,-13.76 -47.85,-20.52 -74.76,-20.52 -34.89,0 -63.39,10.55 -85.52,31.48 -22.13,21.13 -33.29,46.85 -33.29,77.75 0,18.54 3.98,36.68 11.76,54.21 7.77,17.55 22.13,36.48 42.86,57.22 11.16,10.76 48.44,39.47 111.44,85.72 74.54,55.02 125.79,103.86 153.49,146.52 27.71,42.86 41.66,85.92 41.66,129.18 0,62.2 -23.72,116.42 -70.97,162.27 -47.43,46.05 -105.06,68.98 -172.84,68.98 -52.23,0 -99.67,-13.95 -142.12,-41.86 -42.46,-27.91 -81.74,-74.76 -117.62,-140.35z"/>
   <path class="fil2" d="M5431.6 1806.63c809.18,146.82 1422.81,854.96 1422.81,1706.47 0,957.91 -776.54,1734.45 -1734.45,1734.45 -957.91,0 -1734.45,-776.54 -1734.45,-1734.45 0,-759.5 488.22,-1404.87 1167.89,-1639.69 63.69,-18.99 128.68,-34.98 194.79,-47.8 48.91,27.24 97.83,54.49 129.74,158.77 31.91,104.27 46.78,285.56 54.22,420.63 7.44,135.08 7.44,223.94 86.11,268.38 78.67,44.42 236.02,44.42 314.68,-0.86 78.67,-45.31 78.67,-135.9 78.67,-305.55 0,-152.37 0,-368.52 19.82,-558.57l0.18 -1.79z"/>
   <path class="fil3" d="M4606.61 4513.26c181.67,157.9 363.34,315.79 545.02,315.79 181.67,0 363.35,-157.89 545.02,-315.79l545.02 -473.73 -5.04 0c-583.64,0 -496.23,-163.08 -1083.48,-183.27 -587.26,20.19 -507.92,183.27 -1091.56,183.27l545.02 473.73z"/>
   <path class="fil2" d="M3307.66 3591c-2.98,5.94 -5.96,11.89 -26.09,52.02 -20.13,40.13 -57.39,114.45 -158.7,203.5 -101.31,89.05 -266.65,192.82 -353.93,247.91 -87.28,55.09 -96.49,61.51 6.49,36.21 102.98,-25.3 318.15,-82.29 419.22,-105.42 101.07,-23.14 88.04,-12.42 37.77,28.6 -50.27,41.02 -137.77,112.35 -230.11,189.68 -92.35,77.32 -189.56,160.64 -211.98,189.88 -22.41,29.22 29.97,4.36 130.38,-32.1 100.4,-36.47 248.83,-84.53 339.14,-96.28 90.3,-11.75 122.49,12.81 178.68,65.23 56.18,52.41 136.37,132.65 216.55,212.91 -205.17,-280.41 -331.78,-621.93 -347.43,-992.15z"/>
   <path class="fil2" d="M6932.27 3591c2.98,5.94 5.96,11.89 26.09,52.02 20.13,40.13 57.39,114.45 158.7,203.5 101.31,89.05 266.65,192.82 353.93,247.91 87.28,55.09 96.49,61.51 -6.49,36.21 -102.98,-25.3 -318.15,-82.29 -419.22,-105.42 -101.07,-23.14 -88.04,-12.42 -37.77,28.6 50.27,41.02 137.76,112.35 230.11,189.68 92.35,77.32 189.56,160.64 211.98,189.88 22.41,29.22 -29.97,4.36 -130.38,-32.1 -100.4,-36.47 -248.83,-84.53 -339.14,-96.28 -90.3,-11.75 -122.49,12.81 -178.68,65.23 -56.18,52.41 -136.37,132.65 -216.55,212.91 205.18,-280.41 331.78,-621.93 347.43,-992.15z"/>
   <path class="fil4" d="M4429.02 1843.01c99.81,-35.57 202.25,-63.58 306.31,-83.75 16.28,-3.16 31.27,-0.76 45.75,7.31 88.87,49.52 130.96,98.36 161.46,198.04 25.13,82.18 36.3,179.51 44.47,265.07 5.45,57.09 9.43,114.35 12.6,171.61 2.53,45.96 3.03,158.14 31.18,195.61 5.62,7.49 12.56,13.05 20.69,17.64 57.85,32.67 190.1,32.6 247.73,-0.58 6.88,-3.97 13.02,-8.7 18.04,-14.9 32.51,-40.08 26.77,-182.57 26.77,-232.07 0,-187.99 0.68,-378.45 20.19,-565.59 2.29,-21.87 4.85,-43.71 7.77,-65.5 27.56,-205.34 83.77,-377.76 201.06,-549.16 88.08,-128.71 256.05,-299.7 250.74,-461.68 -4.78,-145.63 -146.95,-350.68 -287.19,-394.08 -119.03,-36.84 -230.21,70.19 -288.55,161.85 -63.35,99.52 -70.72,192.5 -80.67,306.46 -0.94,10.65 -1.87,21.29 -2.83,31.94 -4.5,50.21 -9.07,100.7 -15.35,150.71 -6.04,47.98 -11.61,121.47 -81.66,119.36 -20.15,-0.61 -38.84,-10.05 -51.46,-25.67 -21.24,-26.3 -21.45,-78.41 -23.45,-111.22 -2.95,-48.58 -4.88,-97.27 -7.17,-145.89 -1.04,-22.09 -2.12,-44.19 -3.34,-66.26 -2.86,-51.4 -6.87,-178.67 -46.29,-216.99 -42.01,-40.86 -120.97,-8.79 -161.95,16.37 -87.24,53.55 -191.62,172.47 -216.64,273.29 -24.72,99.65 37.97,219.34 70.57,311.75 4.66,13.2 9.14,26.45 13.46,39.76 16.04,49.31 30.81,100.53 41.48,151.28 10.49,49.94 25.07,124.27 -38.54,147.87 -30.81,11.43 -62.78,-0.7 -83.64,-24.22 -19.98,-22.54 -39.23,-60.03 -53.89,-86.69 -22.01,-40.05 -43.63,-80.28 -66.68,-119.75 -23.73,-40.61 -60.99,-103.39 -96.05,-134.51 -5.53,-4.9 -17.43,-14.82 -25.9,-12.98 -22.79,4.97 -55.67,51.18 -68.26,69.48 -32.26,46.89 -50.1,78.59 -50.1,136.11 0,80.72 28.84,172.13 61.3,245.12 44.76,100.63 107.5,200.23 168.03,294.86z"/>
   <circle class="fil5" cx="4579.41" cy="3267.75" r="159.15"/>
   <path class="fil6" d="M5153.15 3856.26l-3.43 942.42c-179.7,-3.39 -363.42,-129.25 -543.1,-285.4l-545.02 -473.74c583.64,0 504.3,-163.09 1091.56,-183.28z"/>
   <path class="fil2" d="M2129.99 1691.19c80.22,0 158.62,7.78 234.55,22.48 1.67,52.73 8.22,123.78 15.16,198.9 14.24,154.28 30.33,328.48 29.16,329.06 -14,6.95 -38.31,7.2 -64.55,3.45 -34.46,-4.92 -68.47,-16.56 -88.92,-29.81 -2.54,-1.65 -21.77,-56.23 -45.89,-127.23 -44.82,-132.04 -93.76,-305.34 -104.98,-352.06 -4.03,-16.79 -8.7,-31.35 -13.86,-44.1 13.07,-0.41 26.16,-0.69 39.34,-0.69zm343.08 48.67c510.69,148.44 883.96,619.79 883.96,1178.37 0,677.67 -549.36,1227.04 -1227.04,1227.04 -677.67,0 -1227.04,-549.37 -1227.04,-1227.04 0,-622.81 464.06,-1137.2 1065.25,-1216.4 13.03,11.72 24.55,28.45 31.89,59 11.81,49.22 62.27,228.54 107.49,361.75 30.91,91 63.28,165.97 89.29,182.82 32.66,21.18 83.34,39.24 132.29,46.23 45.55,6.51 92.22,3.85 127.29,-13.57 67.3,-33.45 47.63,-246.51 30.23,-435.17 -5.59,-60.63 -10.92,-118.43 -13.6,-163.02z"/>
   <path class="fil3" d="M2351.35 3185.88l-2.02 727.81c1.17,0.03 2.34,0.04 3.5,0.04 107.18,0 214.37,-121.93 321.54,-243.88l321.55 -365.85 -2.97 0c-344.32,0 -295.13,-102.53 -641.6,-118.12z"/>
   <path class="fil2" d="M795.68 2975.59c-2.2,4.38 -4.39,8.76 -19.21,38.3 -14.82,29.54 -42.26,84.27 -116.84,149.83 -74.59,65.56 -196.32,141.96 -260.58,182.53 -64.26,40.56 -71.04,45.28 4.78,26.66 75.82,-18.63 234.24,-60.58 308.65,-77.62 74.41,-17.04 64.81,-9.15 27.8,21.06 -37.01,30.2 -101.43,82.72 -169.42,139.65 -67.99,56.93 -139.56,118.27 -156.07,139.8 -16.5,21.52 22.07,3.21 95.99,-23.64 73.92,-26.85 183.2,-62.24 249.69,-70.88 66.49,-8.66 90.19,9.43 131.55,48.02 41.37,38.59 100.4,97.67 159.44,156.76 -151.06,-206.45 -244.28,-457.9 -255.8,-730.47z"/>
   <circle class="fil5" cx="2703.48" cy="2772.78" r="96.56"/>
   <path class="fil7" d="M2351.97 3185.89l-2.65 727.82c-138.78,-2.62 -277.55,-123.24 -416.31,-243.85l-420.9 -365.85c450.73,0 386.34,-102.53 839.86,-118.12z"/>
   <path class="fil4" d="M1974.12 1639.82c30.78,19.72 61.57,39.41 78.18,108.59 18.56,77.31 136.13,487.51 173.82,511.93 49.43,32.04 153.48,55.85 206.52,29.5 56.53,-28.08 -28.94,-537.28 -12.85,-633.99 2.33,-13.93 -5.13,35.45 7.45,-41.05 12.58,-76.54 67.19,-125.33 152.66,-98.93 85.47,26.4 316.97,6.81 320.46,-116.01 3.48,-122.85 -158.46,-317.71 -257.72,-355.21 -99.28,-37.5 -226.5,125.7 -278.4,197.19 -51.9,71.48 -104.88,308.65 -221.3,312.27 -20.57,0.64 -77.14,14.36 -137.79,25.32 -78.91,14.26 -168.34,28.24 -230.5,47.14 -69.33,21.1 -90.65,26.9 -30.3,64.38 74.15,-23.55 150.96,-40.79 229.78,-51.14z"/>
   <path class="fil8" d="M1487.05 1676.14c51.78,-26.49 105.12,-49.86 159.69,-69.99 12.34,-5.82 27.17,-9.88 38.85,-13.72l11.14 -3.7c41.89,-14.06 85.86,-26.33 128.98,-35.8l2.48 -0.56c35.05,-7.72 70.27,-14.58 104.55,-19.68 19.31,-3.3 38.58,-6.89 57.8,-10.56 29.86,-5.7 59.66,-11.69 89.49,-17.42 18.42,-3.53 42.5,-9.02 61.06,-9.6 2.25,-0.06 4.43,-0.41 6.59,-1.04 62.37,-17.8 128.17,-230.95 168.78,-286.9 61.19,-84.27 171.11,-220.68 287.36,-226.84 3.87,-4.32 7.63,-8.73 11.29,-13.26 63.09,-78.05 102.4,-192.44 104.66,-292.39 2.18,-97.15 -29.53,-207.78 -118.56,-259.5 -105.33,-61.17 -250.49,-30.92 -347.08,33.39 -34.73,23.12 -66.66,51.63 -96.21,81 -43.15,42.89 -119.06,111.34 -159.28,156.93 -230.45,261.33 -194.19,-265.47 -714.61,-228.84 -131.75,9.28 -208.2,71.3 -268.93,186.48 -48.77,92.52 -58.11,145.67 -17.45,268.12 60.21,90.75 146.34,177.49 227.84,232.81 91.68,62.21 123.78,141.15 160.75,241.73 35.17,95.73 68.1,192.58 100.8,289.32z"/>
   <path class="fil2" d="M7654.8 1961.5c-441.48,139.41 -761.58,552.18 -761.58,1039.76 0,602.09 488.11,1090.2 1090.2,1090.2 602.11,0 1090.22,-488.11 1090.22,-1090.2 0,-559.5 -421.5,-1020.49 -964.25,-1082.94 -30.77,13.71 -60.76,30.27 -80.88,81.81 -21.88,56.08 -32.09,153.6 -37.2,226.25 -5.1,72.66 -5.1,120.46 -59.08,144.34 -53.99,23.9 -161.95,23.9 -215.92,-0.46 -53.98,-24.36 -53.98,-73.09 -53.98,-164.33 0,-67.28 0,-157.67 -7.52,-244.44z"/>
   <path class="fil7" d="M7822.14 3249.03l1.79 646.64c-1.04,0.03 -2.08,0.04 -3.11,0.04 -95.23,0 -190.46,-108.34 -285.68,-216.68l-285.69 -325.05 2.64 0c305.92,0 262.22,-91.09 570.05,-104.94z"/>
   <g>
    <path class="fil5" d="M7357.64 2816.93c-26.32,-31.64 -129.33,-148.75 -145.56,-183.99 38.71,62.57 101.98,94.89 161.41,132.38 14.25,4.38 22.26,19.48 17.87,33.73 -4.38,14.25 -19.48,22.26 -33.73,17.88z"/>
   </g>
   <path class="fil9" d="M7365.57 2791.12c-10.95,-3.36 -136.37,-126.32 -147.73,-147.47l-5.75 -10.71"/>
   <g>
    <path class="fil5" d="M7403.26 2781.93c-21.35,-35.19 -105.88,-166.26 -116.71,-203.52 29.02,67.61 86.81,108.95 140.03,154.82 13.44,6.44 19.12,22.57 12.68,36.01 -6.44,13.44 -22.57,19.12 -36.01,12.68z"/>
   </g>
   <path class="fil9" d="M7414.92 2757.58c-10.33,-4.95 -116.16,-145.13 -124.26,-167.72l-4.11 -11.45"/>
   <g>
    <path class="fil5" d="M7447.19 2744.51c-14.09,-38.67 -71.48,-183.69 -74.84,-222.34 15.3,71.97 63.93,123.76 107.2,179.13 11.93,8.93 14.36,25.86 5.43,37.79 -8.93,11.93 -25.86,14.37 -37.79,5.43z"/>
   </g>
   <path class="fil9" d="M7463.37 2722.9c-9.17,-6.87 -85.68,-164.97 -89.22,-188.71l-1.8 -12.03"/>
   <path class="fil2" d="M9168.94 3052.21c1.95,3.89 3.9,7.78 17.07,34.03 13.16,26.25 37.54,74.87 103.81,133.12 66.27,58.25 174.43,126.13 231.52,162.17 57.1,36.04 63.12,40.23 -4.24,23.69 -67.37,-16.55 -208.12,-53.83 -274.23,-68.96 -66.11,-15.14 -57.59,-8.13 -24.7,18.71 32.88,26.83 90.12,73.5 150.52,124.08 60.41,50.58 124,105.09 138.66,124.21 14.66,19.12 -19.61,2.85 -85.28,-21 -65.67,-23.86 -162.77,-55.3 -221.85,-62.98 -59.07,-7.69 -80.13,8.38 -116.88,42.67 -36.75,34.28 -89.2,86.77 -141.66,139.27 134.21,-183.42 217.04,-406.83 227.27,-649.01z"/>
   <g>
    <path class="fil5" d="M8316.18 2818.39c26.32,-31.64 129.33,-148.75 145.56,-183.99 -38.71,62.56 -101.98,94.89 -161.41,132.38 -14.25,4.38 -22.26,19.48 -17.88,33.73 4.38,14.25 19.49,22.26 33.74,17.88z"/>
   </g>
   <path class="fil9" d="M8308.25 2792.59c10.96,-3.37 136.38,-126.32 147.73,-147.47l5.75 -10.71"/>
   <g>
    <path class="fil5" d="M8270.56 2783.39c21.35,-35.18 105.88,-166.26 116.71,-203.52 -29.02,67.61 -86.81,108.95 -140.03,154.82 -13.44,6.44 -19.12,22.57 -12.68,36.01 6.44,13.44 22.56,19.12 36.01,12.68z"/>
   </g>
   <path class="fil9" d="M8258.9 2759.04c10.33,-4.95 116.16,-145.12 124.26,-167.72l4.11 -11.45"/>
   <g>
    <path class="fil5" d="M8226.63 2745.97c14.09,-38.67 71.48,-183.69 74.84,-222.35 -15.3,71.97 -63.93,123.76 -107.2,179.13 -11.93,8.94 -14.36,25.86 -5.43,37.79 8.94,11.93 25.86,14.36 37.79,5.43z"/>
   </g>
   <path class="fil9" d="M8210.45 2724.36c9.17,-6.87 85.68,-164.97 89.22,-188.71l1.79 -12.03"/>
   <path class="fil3" d="M7821.58 3249.04l2.35 646.65c123.3,-2.33 246.59,-109.5 369.88,-216.65l373.97 -325.05c-400.46,0 -343.26,-91.1 -746.21,-104.95z"/>
   <path class="fil4" d="M8336.52 1924.09c-68.49,-19.13 -138.76,-34.2 -210.17,-45.05 -11.17,-1.7 -21.46,-0.4 -31.39,3.94 -60.97,26.64 -89.87,52.9 -110.79,106.53 -17.25,44.19 -24.92,96.55 -30.51,142.57 -3.74,30.71 -6.48,61.51 -8.65,92.3 -1.72,24.72 -2.08,85.06 -21.39,105.23 -3.85,4.02 -8.62,7 -14.19,9.47 -39.68,17.58 -130.43,17.55 -169.99,-0.3 -4.7,-2.12 -8.92,-4.67 -12.36,-8.01 -22.31,-21.56 -18.37,-98.21 -18.37,-124.83 0,-101.11 -0.47,-203.56 -13.86,-304.22 -1.56,-11.77 -3.32,-23.52 -5.32,-35.24 -18.92,-110.45 -57.49,-203.18 -137.97,-295.38 -60.43,-69.23 -117.31,-151.48 -113.64,-238.62 3.27,-78.33 42.43,-198.33 138.67,-221.69 81.66,-19.81 157.96,37.76 197.99,87.05 43.45,53.54 48.53,103.55 55.35,164.84 0.64,5.73 1.29,11.45 1.94,17.19 3.08,27 6.22,54.16 10.53,81.06 0.08,0.49 14.66,133.12 41.14,107.44 4.34,-4.22 17.56,-88.07 18.29,-100.08 0.7,-11.89 33.3,-123.96 34.14,-135.83 13.14,-49.19 25.79,-91.18 52.84,-111.8 28.82,-21.97 83,-4.72 111.12,8.82 59.86,28.79 131.46,92.75 148.64,146.99 16.96,53.59 -26.06,117.97 -48.41,167.68 -3.21,7.1 -6.28,14.22 -9.24,21.39 -11,26.51 -21.15,54.06 -28.47,81.37 -7.2,26.85 -17.2,66.84 26.45,79.54 13.59,3.96 17.48,-31.83 53.18,-113.86 16.36,-58.53 67.82,-79.71 100.84,-88.63 60.74,-12.59 73.15,19.68 99.96,61.73 62.01,167.21 -7.55,217.33 -106.33,338.37z"/>
   <circle class="fil5" cx="1954.83" cy="2772.78" r="96.56"/>
   <circle class="fil5" cx="5719.2" cy="3267.75" r="159.15"/>
   <g>
    <path class="fil9 str0" d="M7509.27 2753.05c63.56,0 115.1,51.54 115.1,115.1 0,63.56 -51.53,115.1 -115.1,115.1 -63.56,0 -115.1,-51.54 -115.1,-115.1 0,-63.56 51.53,-115.1 115.1,-115.1z"/>
    <path id="1" class="fil5" d="M7509.27 2753.05c63.56,0 115.1,51.54 115.1,115.1 0,63.56 -51.53,115.1 -115.1,115.1 -63.56,0 -115.1,-51.54 -115.1,-115.1 0,-63.56 51.53,-115.1 115.1,-115.1z"/>
   </g>
   <g>
    <path class="fil9 str0" d="M8174.42 2753.05c63.56,0 115.1,51.54 115.1,115.1 0,63.56 -51.54,115.1 -115.1,115.1 -63.56,0 -115.1,-51.54 -115.1,-115.1 0,-63.56 51.53,-115.1 115.1,-115.1z"/>
    <path id="1" class="fil5" d="M8174.42 2753.05c63.56,0 115.1,51.54 115.1,115.1 0,63.56 -51.54,115.1 -115.1,115.1 -63.56,0 -115.1,-51.54 -115.1,-115.1 0,-63.56 51.53,-115.1 115.1,-115.1z"/>
   </g>
   <path class="fil10" d="M1896.22 4065.98c-534.76,-108.34 -937.34,-581.03 -937.34,-1147.75 0,-250.47 78.68,-482.56 212.62,-672.96 -70.92,167.11 -110.18,350.94 -110.18,543.93 0,570.92 343.41,1061.52 834.9,1276.78z"/>
   <path class="fil10" d="M5062.16 5178.55c-893.64,-30.49 -1608.75,-764.39 -1608.75,-1665.46 0,-225.44 44.85,-440.39 125.98,-636.52 -19.87,113.59 -30.3,230.41 -30.3,349.68 0,939.65 643.04,1729.09 1513.07,1952.3z"/>
   <path class="fil10" d="M6981.44 2737.25c-22.14,84.29 -33.98,172.77 -33.98,264.01 0,531.05 399.63,968.71 914.54,1028.84 -511.75,-151.02 -885.28,-624.42 -885.28,-1185.11 0,-36.3 1.65,-72.23 4.72,-107.74z"/>
   <path class="fil11" d="M2680.4 1884.38c369.31,197.04 620.69,586.06 620.69,1033.86 0,287.51 -103.67,550.76 -275.59,754.58 129.87,-205.55 205.09,-449.07 205.09,-710.19 0,-443.47 -216.82,-836.21 -550.18,-1078.25z"/>
   <path class="fil11" d="M5734.57 1987.89c603.51,243.42 1029.46,834.53 1029.46,1525.21 0,174.74 -27.37,343.08 -77.87,501.07 9.89,-82.85 15.11,-167.13 15.11,-252.64 0,-743.96 -385.05,-1397.91 -966.7,-1773.63z"/>
   <path class="fil11" d="M8899.57 3485.19c76.47,-144.45 119.84,-309.12 119.84,-483.94 0,-490.23 -340.52,-900.91 -797.93,-1008.48 431.11,194.9 731.09,628.71 731.09,1132.57 0,125.14 -18.58,245.94 -52.99,359.84z"/>
   <ellipse class="fil12" cx="1582.1" cy="3025.46" rx="191.01" ry="133.71"/>
   <ellipse class="fil12" cx="2997.21" cy="3038.04" rx="168.8" ry="133.71"/>
   <path class="fil13" d="M5503.15 379.77c49.95,-5.04 98.79,28.48 135.34,64.96 36.57,36.47 60.82,75.89 79.52,109.91 18.71,34.03 31.85,62.67 38.92,92.15 7.08,29.49 8.08,59.81 5.27,90.28 -2.8,30.49 -9.4,61.11 -25.45,101.88 -16.04,40.78 -41.5,91.73 -72.99,138.74 -31.5,47 -69.01,90.08 -94.49,121.92 -25.46,31.84 -38.89,52.43 -61.98,91.59 -23.08,39.16 -55.81,96.91 -81.28,154.22 -25.47,57.31 -43.66,114.17 -59.12,174.43 -15.46,60.28 -28.21,123.95 -37.82,189.91 -9.6,65.99 -16.08,134.25 -22.02,201.5 -5.93,67.25 -11.31,133.48 -14.44,201.22 -3.13,67.74 -3.99,136.98 -4.43,190.71 -0.43,53.73 -0.43,91.93 -0.43,123.76 0,31.84 0,57.3 -2.83,12.58 -2.83,-44.71 -8.48,-159.63 -8.48,-267.88 0,-108.23 5.65,-209.79 14.84,-311.52 9.2,-101.73 21.94,-203.59 33.74,-294.57 11.8,-90.98 22.66,-171.06 41.76,-234.73 19.1,-63.68 46.44,-110.93 91.95,-172.77 45.51,-61.83 109.17,-138.24 153.74,-201.91 44.58,-63.66 70.04,-114.61 76.41,-171.91 6.37,-57.31 -6.37,-120.96 -18.49,-163.14 -12.1,-42.16 -23.61,-62.83 -43.56,-84.36 -19.94,-21.53 -48.34,-43.95 -74.43,-59.09 -26.09,-15.13 -49.85,-22.99 -83.02,-22.71 -33.16,0.29 -75.72,8.74 -71.47,-8.86 4.25,-17.59 55.29,-61.23 105.24,-66.29z"/>
   <path class="fil13" d="M4704.16 674.33c-4.2,-2.86 14.99,-21.04 36.72,-37.22 21.74,-16.17 45.99,-30.32 69.24,-40.6 23.26,-10.27 45.51,-16.67 61.26,-15.51 15.77,1.16 25.06,9.87 32.81,27.55 7.75,17.7 13.95,44.36 17.05,79.42 3.1,35.06 3.1,78.53 5.62,120.65 2.54,42.11 7.58,82.89 12.3,118.93 4.72,36.06 9.09,67.39 6.74,68.06 -2.35,0.69 -11.46,-29.31 -18.87,-66.03 -7.41,-36.72 -13.13,-80.2 -20.49,-116.27 -7.35,-36.06 -16.32,-64.73 -23.3,-90.04 -6.97,-25.29 -11.95,-47.21 -19.97,-60.48 -8.01,-13.26 -19.06,-17.88 -36.17,-18.2 -17.12,-0.3 -40.3,3.68 -65.69,11.92 -25.4,8.23 -53.03,20.71 -57.24,17.83z"/>
   <path class="fil13" d="M4256.2 1228.08c7.39,-15.24 25.92,-42.86 41.24,-56.51 15.34,-13.65 27.46,-13.31 46.5,6.24 19.04,19.54 44.98,58.28 69.72,98.82 24.76,40.54 48.29,82.89 47.33,91.31 -0.96,8.44 -26.42,-17.02 -50.67,-46.12 -24.24,-29.08 -47.24,-61.78 -68.35,-79.14 -21.1,-17.36 -40.31,-19.39 -54.28,-15.77 -13.97,3.62 -22.68,12.87 -28.91,16.06 -6.24,3.21 -9.98,0.37 -2.58,-14.88z"/>
   <path class="fil13" d="M7583.87 1170.4c16.69,-7.24 35.21,-10.61 58.28,-8.08 23.09,2.52 50.72,10.96 70.43,22.57 19.71,11.63 31.5,26.46 41.43,47.86 9.95,21.39 18.05,49.36 26.24,81.4 8.2,32.04 16.53,68.17 21.58,102.7 5.06,34.53 6.84,67.48 10.44,93.89 3.59,26.42 8.97,46.3 4.92,29.28 -4.03,-17.01 -17.52,-70.92 -31.5,-120.46 -13.98,-49.52 -28.47,-94.67 -43.96,-127.85 -15.5,-33.19 -32.01,-54.42 -49.88,-68.9 -17.85,-14.49 -37.06,-22.23 -56.62,-26.71 -19.55,-4.46 -39.46,-5.67 -55.79,-4.5 -16.34,1.2 -29.13,4.74 -28.1,0.95 1.02,-3.77 15.86,-14.88 32.53,-22.15z"/>
   <path class="fil13" d="M8168.45 1327.07c12.3,11.3 25.78,27.48 32.52,43.64 6.74,16.17 6.74,32.35 1.34,56.77 -5.39,24.44 -16.17,57.11 -19.61,56.97 -3.42,-0.12 0.49,-33.07 1.16,-60.19 0.69,-27.13 -1.9,-48.43 -10.76,-67.67 -8.86,-19.24 -24.04,-36.43 -26.05,-41.83 -2.02,-5.38 9.09,1.03 21.39,12.3z"/>
   <path class="fil13" d="M8416.95 1577.96c4.89,10.79 10.39,28.29 14.49,42.42 4.11,14.15 6.8,24.92 8.31,33.34 1.53,8.44 1.86,14.49 1.86,21.56 0,7.08 -0.34,15.18 -2.03,23.93 -1.68,8.76 -4.71,18.2 -6.57,10.61 -1.85,-7.58 -2.52,-32.17 -5.1,-51.74 -2.58,-19.56 -7.08,-34.1 -11.63,-46.73 -4.54,-12.64 -9.15,-23.36 -13.98,-32.44 -4.83,-9.08 -9.87,-16.49 -9.7,-19.53 0.17,-3.03 5.55,-1.67 10.37,1.04 4.83,2.71 9.11,6.77 13.99,17.54z"/>
   <path class="fil13" d="M2611.91 1079.37c18.87,-1.34 35.05,7.43 54.58,20.73 19.55,13.31 42.46,31.16 63.53,52.89 21.06,21.75 40.26,47.34 55.76,69.41 15.51,22.08 27.29,40.6 38.23,62.16 10.96,21.58 21.07,46.16 25.95,63 4.89,16.86 4.56,25.96 -3.53,15.01 -8.09,-10.96 -23.93,-41.95 -43.81,-73.12 -19.87,-31.17 -43.8,-62.5 -65.02,-87.44 -21.22,-24.94 -39.74,-43.46 -57.77,-58.11 -18.03,-14.66 -35.55,-25.44 -51.05,-30.16 -15.5,-4.71 -28.98,-3.36 -48.69,3.38 -19.71,6.74 -45.64,18.87 -51.71,17.53 -6.07,-1.34 7.75,-16.18 25.43,-29.32 17.7,-13.15 39.26,-24.59 58.11,-25.95z"/>
   <path class="fil13" d="M2392.85 1733.29c3.38,5.4 9.44,73.44 14.84,147.24 5.4,73.79 10.1,153.3 11.11,209.23 1.03,55.94 -1.68,88.28 -4.03,109.17 -2.35,20.89 -4.39,30.33 -7.43,-0.67 -3.03,-30.99 -7.06,-102.43 -10.44,-168.47 -3.36,-66.03 -6.07,-126.67 -7.08,-185.64 -1.01,-58.95 -0.34,-116.24 3.03,-110.85z"/>
   <path class="fil14" d="M1206.78 517.16c20.89,-10.44 49.19,-15.83 89.96,-14.15 40.77,1.68 94.01,10.46 144.21,26.62 50.21,16.17 97.37,39.76 140.5,70.42 43.14,30.67 82.21,68.4 112.87,102.43 30.67,34.03 52.92,64.37 79.86,85.25 26.96,20.89 58.63,32.34 85.58,39.08 26.95,6.74 49.2,8.77 32.01,7.41 -17.18,-1.34 -73.79,-6.05 -116.24,-20.22 -42.45,-14.15 -70.75,-37.73 -98.72,-67.39 -27.96,-29.65 -55.59,-65.36 -88.95,-94.33 -33.36,-28.97 -72.43,-51.22 -118.26,-68.08 -45.83,-16.84 -98.38,-28.29 -140.85,-31.66 -42.45,-3.36 -74.79,1.34 -101.4,3.7 -26.62,2.37 -47.51,2.37 -51.22,-5.38 -3.7,-7.75 9.78,-23.25 30.67,-33.7z"/>
   <path class="fil14" d="M2346.92 457.64c20.69,-10.34 44.96,-18.43 71.22,-23.49 26.29,-5.04 54.6,-7.07 86.94,-0.34 32.35,6.74 68.74,22.25 92.99,45.49 24.26,23.24 36.4,54.25 44.82,84.23 8.44,29.98 13.14,58.97 9.43,100.08 -3.7,41.11 -15.83,94.33 -27.29,132.73 -11.45,38.41 -22.23,62.01 -22.57,39.76 -0.34,-22.23 9.78,-90.28 16.34,-141.52 6.57,-51.22 9.6,-85.63 0.82,-114.62 -8.76,-28.99 -29.33,-52.58 -53.76,-72.47 -24.42,-19.87 -52.72,-36.05 -89.53,-37.73 -36.81,-1.68 -82.12,11.11 -113.8,23.26 -31.66,12.15 -49.66,23.64 -59.16,23.57 -9.47,-0.08 -10.44,-11.72 -2.35,-23.85 8.1,-12.14 25.21,-24.74 45.9,-35.1z"/>
   <path class="fil15" d="M1228.08 989.46c26.11,26.89 51.98,57.77 73.33,90.6 21.37,32.85 38.2,67.68 54.17,109.33 15.97,41.67 31.05,90.17 50.47,143.74 19.43,53.56 43.15,112.19 59.77,159.35 16.62,47.19 26.13,82.9 31.73,102.73 5.62,19.83 7.34,23.81 25.89,17.2 18.55,-6.62 53.94,-23.81 95.35,-38.15 41.43,-14.32 88.91,-25.79 121.04,-33.95 32.15,-8.14 48.98,-13 31.29,-11.02 -17.69,2 -69.91,10.82 -109.4,16.32 -39.47,5.52 -66.23,7.74 -86.74,-1.52 -20.49,-9.26 -34.72,-29.99 -51.98,-67.9 -17.26,-37.91 -37.56,-93.03 -59.79,-152.78 -22.21,-59.72 -46.36,-124.08 -78.95,-181.63 -32.58,-57.52 -73.57,-108.21 -114.13,-144.58 -40.55,-36.37 -80.69,-58.42 -87.6,-57.98 -6.89,0.44 19.44,23.38 45.54,50.25z"/>
   <path class="fil16" d="M2014.62 946.48c-9.43,-5.38 34.38,20.89 80.87,41.11 46.5,20.22 95.7,34.37 151.3,34.03 55.59,-0.34 117.57,-15.16 155.98,-27.29 38.41,-12.12 53.26,-21.56 35.05,-13.48 -18.19,8.1 -69.41,33.7 -122.98,44.13 -53.56,10.45 -109.5,5.75 -168.81,-15.14 -59.29,-20.89 -121.96,-57.96 -131.4,-63.36z"/>
   <path class="fil16" d="M2180.03 1356.4c10.1,-14.15 44.47,-83.57 71.42,-137.15 26.95,-53.56 46.5,-91.3 74.17,-127.41 27.67,-36.11 63.48,-70.6 100.38,-91.82 36.89,-21.23 74.88,-29.19 65.04,-26.19 -9.84,2.99 -67.53,16.95 -111.83,24.36 -44.31,7.41 -75.26,8.28 -110.27,4 -35.03,-4.28 -74.1,-13.72 -107.79,-27.87 -33.7,-14.15 -61.99,-33.01 -86.59,-49.02 -24.6,-16 -45.47,-29.14 -43.79,-24.1 1.68,5.06 25.93,28.32 52.8,49.92 26.85,21.62 56.31,41.6 91.2,57.6 34.87,16.01 75.15,28.04 102.89,32.7 27.72,4.68 42.89,1.97 34.64,23.36 -8.27,21.41 -39.94,66.89 -62.85,108.16 -22.92,41.27 -37.09,78.35 -51.24,117.42 -14.15,39.09 -28.3,80.2 -18.19,66.05z"/>
   <path class="fil15" d="M1224.8 961.21c5.73,0.69 53.7,23.37 93.54,42.12 39.82,18.77 71.48,33.59 103.16,45.37 31.66,11.8 63.34,20.57 99.39,22.76 36.05,2.18 76.48,-2.18 89.79,-2.18 13.31,0 -0.5,4.37 -16,7.9 -15.51,3.55 -32.68,6.25 -59.31,5.23 -26.62,-1.01 -62.67,-5.71 -90.46,-12.45 -27.8,-6.74 -47.34,-15.51 -71.42,-26.97 -24.1,-11.45 -52.73,-25.6 -85.32,-43.34 -32.58,-17.74 -69.1,-39.09 -63.37,-38.42z"/>
  </g>
 </g>
</svg>
