<?xml version="1.0" encoding="UTF-8"?>
<!DOCTYPE svg PUBLIC "-//W3C//DTD SVG 1.1//EN" "http://www.w3.org/Graphics/SVG/1.1/DTD/svg11.dtd">
<!-- Creator: CorelDRAW 2018 (64-Bit Evaluation Version) -->
<svg xmlns="http://www.w3.org/2000/svg" xml:space="preserve" width="8.5in" height="8.65179in" version="1.1" style="shape-rendering:geometricPrecision; text-rendering:geometricPrecision; image-rendering:optimizeQuality; fill-rule:evenodd; clip-rule:evenodd"
viewBox="0 0 8500 8651.79"
 xmlns:xlink="http://www.w3.org/1999/xlink">
 <defs>
  <style type="text/css">
   <![CDATA[
    .fil0 {fill:#FFBF00}
   ]]>
  </style>
 </defs>
 <g id="Layer_x0020_1">
  <metadata id="CorelCorpID_0Corel-Layer"/>
  <path class="fil0" d="M-0 1062.5l0 -758.93c0,-167.67 135.91,-303.57 303.57,-303.57l7892.86 0c167.67,0 303.57,135.91 303.57,303.57l0 758.93c0,167.67 -135.91,303.57 -303.57,303.57l-7892.86 0c-167.67,0 -303.57,-135.91 -303.57,-303.57zm303.57 2732.14l7892.86 0c167.67,0 303.57,-135.91 303.57,-303.57l0 -758.93c0,-167.67 -135.91,-303.57 -303.57,-303.57l-7892.86 0c-167.67,0 -303.57,135.91 -303.57,303.57l0 758.93c0,167.67 135.91,303.57 303.57,303.57zm0 4857.15l7892.86 0c167.67,0 303.57,-135.91 303.57,-303.57l0 -758.93c0,-167.67 -135.91,-303.57 -303.57,-303.57l-7892.86 0c-167.67,0 -303.57,135.91 -303.57,303.57l0 758.93c0,167.67 135.91,303.57 303.57,303.57zm0 -2428.57l7892.86 0c167.67,0 303.57,-135.91 303.57,-303.57l0 -758.93c0,-167.67 -135.91,-303.57 -303.57,-303.57l-7892.86 0c-167.67,0 -303.57,135.91 -303.57,303.57l0 758.93c0,167.67 135.91,303.57 303.57,303.57z"/>
 </g>
</svg>
