<?xml version="1.0" encoding="UTF-8"?>
<!DOCTYPE svg PUBLIC "-//W3C//DTD SVG 1.1//EN" "http://www.w3.org/Graphics/SVG/1.1/DTD/svg11.dtd">
<!-- Creator: CorelDRAW 2018 (64-Bit Evaluation Version) -->
<svg xmlns="http://www.w3.org/2000/svg" xml:space="preserve" width="8.23438in" height="8.23438in" version="1.1" style="shape-rendering:geometricPrecision; text-rendering:geometricPrecision; image-rendering:optimizeQuality; fill-rule:evenodd; clip-rule:evenodd"
viewBox="0 0 8234.38 8234.38"
 xmlns:xlink="http://www.w3.org/1999/xlink">
 <defs>
  <style type="text/css">
   <![CDATA[
    .fil0 {fill:#FFBF00}
   ]]>
  </style>
 </defs>
 <g id="Layer_x0020_1">
  <metadata id="CorelCorpID_0Corel-Layer"/>
  <path class="fil0" d="M4117.19 8234.38c-2274.41,0 -4117.19,-1842.78 -4117.19,-4117.19 0,-2274.41 1842.78,-4117.19 4117.19,-4117.19 2274.41,0 4117.19,1842.77 4117.19,4117.19 0,2274.42 -1842.77,4117.19 -4117.19,4117.19zm1925.78 -4847.66l-1925.78 0 0 -1177.05c0,-177.64 -215.82,-267.28 -340.33,-141.11l-1897.56 1907.52c-78.03,78.03 -78.03,202.54 0,280.57l1897.56 1907.52c126.17,126.17 340.33,36.52 340.33,-141.11l0 -1175.39 1925.78 0c109.57,0 199.22,-89.65 199.22,-199.22l0 -1062.5c0,-109.57 -89.65,-199.22 -199.22,-199.22l0 0z"/>
 </g>
</svg>
