<?xml version="1.0" encoding="UTF-8"?>
<!DOCTYPE svg PUBLIC "-//W3C//DTD SVG 1.1//EN" "http://www.w3.org/Graphics/SVG/1.1/DTD/svg11.dtd">
<!-- Creator: CorelDRAW 2018 (64-Bit Evaluation Version) -->
<svg xmlns="http://www.w3.org/2000/svg" xml:space="preserve" width="8.26772in" height="7.88998in" version="1.1" style="shape-rendering:geometricPrecision; text-rendering:geometricPrecision; image-rendering:optimizeQuality; fill-rule:evenodd; clip-rule:evenodd"
viewBox="0 0 5132.37 4897.89"
 xmlns:xlink="http://www.w3.org/1999/xlink">
 <defs>
  <style type="text/css">
   <![CDATA[
    .fil0 {fill:#333333}
   ]]>
  </style>
 </defs>
 <g id="Layer_x0020_1">
  <metadata id="CorelCorpID_0Corel-Layer"/>
  <g id="_1815549183392">
   <g>
    <g id="c68_twitter">
     <path class="fil0" d="M4724.48 0l-4316.23 0c-225.89,0 -408.25,182.36 -408.25,407.89l0 4082.28c0,225.01 182.36,407.72 408.25,407.72l4316.23 0c224.83,0 407.89,-182.71 407.89,-407.72l0 -4082.28c0,-225.54 -183.06,-407.89 -407.89,-407.89zm-2170.93 2922.31c71.96,71.96 159.37,108.29 262.57,108.29l741.9 -0c103.55,0 191.31,37.03 265.03,110.4 74.07,73.36 110.4,161.82 110.4,264.67 0,102.85 -36.68,191.13 -110.4,264.32 -73.72,73.72 -161.47,110.75 -264.67,110.75l-741.9 0c-308.91,0 -573.23,-110.05 -792.27,-329.09 -219.39,-219.39 -328.74,-483.36 -328.74,-792.27l0 -1496.61c0,-106.01 36.33,-195 109.34,-267.13 73.01,-71.78 162.18,-107.94 267.31,-107.94 102.5,0 189.91,36.51 263.27,110.22 73.01,73.72 109.34,161.65 109.34,264.67l0 374.9 1111.7 0c103.9,0 192.01,36.68 265.73,110.4 74.77,73.36 111.1,161.3 111.1,264.67 0,102.32 -36.68,190.96 -110.4,264.67 -73.72,73.19 -161.47,110.05 -265.03,110.05l-1112.93 0 0 371.56c0,103.38 35.98,190.96 108.64,263.45z"/>
    </g>
    <g id="Capa_1_241_">
    </g>
   </g>
   <g>
   </g>
   <g>
   </g>
   <g>
   </g>
   <g>
   </g>
   <g>
   </g>
   <g>
   </g>
   <g>
   </g>
   <g>
   </g>
   <g>
   </g>
   <g>
   </g>
   <g>
   </g>
   <g>
   </g>
   <g>
   </g>
   <g>
   </g>
   <g>
   </g>
  </g>
 </g>
</svg>
